<?xml version="1.0" standalone="no"?>
<!DOCTYPE svg PUBLIC "-//W3C//DTD SVG 1.1//EN" "http://www.w3.org/Graphics/SVG/1.1/DTD/svg11.dtd">
<svg version="1.1" viewBox="0 0 1000 703.083">
<rect width="100%" height="100%" fill="white"/>
<polyline fill="none" stroke="black" stroke-width="0.5" points="328.912,442.467 332.054,427.109 340.547,434.206 347.179,437.231 341.361,441.768 335.66,443.63 337.289,446.073 349.971,463.409 356.254,469.11 380.337,457.592 369.75,451.891 366.259,441.885 356.486,437.347 370.913,426.178 395.346,434.206 423.502,420.244 406.515,414.078 400.814,408.028 382.781,412.682 382.664,412.333 372.891,401.513 356.603,402.327 343.921,402.792 335.777,388.831 338.336,379.174 347.411,381.734 356.719,375.218 340.43,367.772 340.663,353.578 343.805,350.553 357.65,349.156 379.639,369.75 385.573,339.616 378.709,332.403 364.747,321.582 384.991,292.03 405.817,279.116 389.18,258.29 387.202,240.605 340.198,244.212 302.269,273.298 267.365,265.852 286.911,235.253 273.764,207.679 245.724,223.502 245.375,194.066 227.341,177.312 230.832,174.869 245.608,155.556 259.104,151.716 258.988,150.32 261.315,149.855 273.066,156.37 287.26,143.455 311.227,132.752 321.699,152.996 307.272,164.165 313.089,194.532 345.317,180.105 360.558,198.837 364.514,171.262 352.996,144.852 327.749,121.35 341.943,105.177 350.087,102.618 357.533,114.951 379.407,115.532 373.706,40.1396 364.863,0 411.286,69.2263 403.607,94.8226 411.402,114.951 403.141,117.277 403.258,129.61 418.266,156.021 411.518,160.558 408.028,161.024 406.166,165.212 412.449,182.315 418.848,168.47 452.123,173.822 447.469,217.917 424.2,245.841 419.895,244.91 422.571,278.767 427.691,324.956 431.297,329.261 439.092,338.22 447.004,315.3 467.83,306.341 480.396,296.102 464.572,271.204 478.999,275.509 515.532,253.636 534.38,218.266 529.261,180.803 515.998,142.176 477.603,126.003 463.758,130.541 442.118,119.023 469.575,101.92 507.388,103.083 521.233,129.727 568.47,120.186 594.066,99.2437 606.748,80.0465 596.626,68.5282 693.194,55.2647 723.793,79.6975 738.22,105.061 725.189,124.956 767.19,180.105 800.931,134.38 815.59,108.435 777.08,72.833 773.008,50.6108 792.903,48.7493 826.294,40.954 833.275,52.2397 836.533,71.9023 835.718,75.3927 837.58,86.0966 842.816,72.9494 847.353,66.3176 852.705,63.8743 855.381,66.3176 855.846,68.6446 855.265,70.6225 860.035,72.484 860.151,68.9936 875.276,71.5532 886.911,75.509 904.13,86.911 910.064,94.8226 876.44,101.571 885.631,124.956 897.266,133.915 934.613,127.749 939.849,124.142 941.478,143.921 944.27,144.735 945.55,144.968 948.807,147.062 950.32,155.207 953.112,154.508 961.024,170.564 936.94,176.382 931.123,161.14 924.491,153.694 907.039,204.305 947.179,205.119 959.977,225.713 996.975,253.054 973.24,269.575 1000,294.008 980.454,313.205 984.759,326.236 980.919,336.358 978.243,350.32 975.8,351.483 974.869,396.161 973.706,405.352 978.01,434.322 972.077,415.125 964.282,403.258 938.802,403.839 940.081,382.432 914.951,375.218 907.388,362.187 894.124,355.439 900.756,373.357 890.401,415.707 879.348,417.917 828.738,405.352 793.601,405.352 785.806,430.483 728.679,398.953 778.01,328.33 782.199,311.111 854.218,316.928 817.917,296.102 760.675,261.082 753.81,248.982 687.725,234.555 662.827,194.415 623.618,147.877 606.748,236.533 615.009,249.098 625.015,269.808 630.134,279.348 631.879,304.479 598.487,315.067 616.405,328.447 671.321,337.638 625.48,384.177 639.558,453.519 663.06,479.465 606.05,463.06 556.254,445.375 541.594,489.238 555.323,511.926 510.529,490.285 494.59,494.706 465.736,519.837 465.271,518.674 486.097,476.905 495.986,460.268 501.687,439.558 508.784,411.984 493.426,389.994 506.457,371.844 512.973,339.616 482.49,348.691 473.298,364.514 436.067,389.645 455.032,406.283 445.026,428.621 442.001,454.218 455.032,449.913 468.994,445.957 478.069,446.073 459.57,463.293 465.154,469.924 462.013,470.506 456.777,473.997 434.439,479.581 399.884,488.424 378.01,492.263 374.636,501.222 389.296,551.6 374.404,536.707 339.732,527.749 318.092,487.725 308.319,473.647 302.152,477.836 288.773,483.653 297.15,492.845 296.335,513.787 286.911,507.155 275.509,502.85 275.044,495.404 267.714,498.429 266.783,478.883 272.949,467.714 260.5,464.456 264.34,453.636 263.525,449.098 259.337,443.165 253.636,448.749 250.262,443.397 227.225,434.206 235.951,447.702 230.832,451.542 233.042,454.916 237.115,455.148 232.926,462.129 240.605,462.129 238.278,469.692 246.306,479.116 250.727,482.839 242.118,488.307 234.555,494.008 232.461,484.351 226.294,486.678 220.128,482.141 212.449,495.986 216.987,497.033 225.131,510.878 217.568,523.444 209.308,552.065 194.066,570.913 170.215,584.293 157.184,595.579 128.214,602.792 123.095,639.092 149.04,645.724 156.021,647.469 92.4956,703.083 93.8918,663.06 100.175,635.951 91.2158,633.741 85.0494,627.691 84.0023,628.04 78.8831,623.037 74.8109,613.962 80.5119,613.147 88.0745,622.222 93.4264,617.452 102.501,605.003 98.4293,597.208 83.1879,595.695 94.8226,584.991 96.9168,579.29 88.3072,571.611 96.3351,565.329 95.637,570.332 100.175,572.775 103.432,569.983 116.23,581.617 119.721,570.681 114.369,570.913 105.294,563.583 102.269,561.14 105.061,559.046 110.646,556.719 118.906,558.813 120.419,550.436 114.951,548.458 108.435,547.76 105.526,550.902 99.2437,548.109 106.225,541.71 88.0745,527.749 89.936,527.283 107.737,531.821 108.319,531.588 113.322,530.89 111.46,522.862 126.236,530.774 123.095,541.478 138.22,555.905 152.414,567.423 155.672,554.857 156.603,537.522 147.411,520.186 144.386,513.903 140.314,518.557 133.45,514.02 135.195,507.853 147.993,503.2 144.852,496.219 136.475,495.055 146.131,489.703 145.433,481.792 146.713,469.575 132.519,468.528 121.35,470.971 127.865,480.279 123.793,480.628 116.463,481.21 116.812,484.119 123.677,487.26 122.862,488.424 124.607,490.634 122.28,491.681 115.416,496.219 105.526,496.684 91.6812,493.543 104.712,471.786 109.948,455.381 93.0774,463.176 88.5398,452.821 85.2821,455.148 80.9773,453.985 71.7859,443.281 84.4677,434.322 88.8889,443.048 99.4764,436.3 116.579,428.156 109.133,418.615 93.3101,417.452 79.4648,424.084 81.3264,415.358 79.8138,405.585 68.8773,408.726 70.2734,396.51 71.6696,379.407 86.562,373.008 80.9773,357.184 87.7254,325.654 99.1274,297.15 87.1437,252.589 61.082,236.067 43.7464,220.477 9.30774,192.437 1.27981,174.52 0,170.913 36.4165,159.744 43.8627,169.983 65.9686,177.429 73.5311,185.689 78.9994,188.133 72.135,191.623 48.982,194.881 58.9878,201.978 61.082,212.333 58.6387,217.103 63.0599,215.241 71.6696,217.103 81.4427,222.339 91.0995,230.599 111.926,237.115 138.104,247.702 150.087,252.589 134.613,265.387 145.899,275.276 155.672,285.748 151.367,295.521 150.785,314.951 133.45,317.743 146.481,331.355 159.046,342.874 172.193,327.283 181.035,297.848 174.636,290.867 184.991,270.273 176.614,263.409 169.052,231.53 145.782,225.945 138.336,226.062 150.204,201.163 158.813,203.839 161.373,205.119 181.385,203.258 182.664,200.465 186.271,208.842 194.648,194.648 203.723,189.645 214.078,192.321 206.981,205.236 209.657,218.266 200.116,247.586 223.269,267.83 239.442,290.401 233.624,297.033 210.006,293.426 204.421,314.369 213.962,316.696 231.297,339.5 253.985,326.934 258.057,348.807 248.633,353.694 242.816,367.074 226.76,368.935 218.034,375.102 200.582,351.251 180.337,345.666 171.495,357.301 177.196,375.218 177.894,383.013 170.332,407.679 163.583,402.443 149.389,397.789 149.971,389.761 151.949,373.357 136.242,368.005 134.031,374.52 124.84,368.237 135.544,359.511 128.214,357.882 123.56,339.616 103.549,357.882 105.876,373.473 110.297,382.897 99.8255,386.155 89.2379,391.507 105.759,404.421 113.089,405.934 110.646,391.739 119.023,393.95 124.724,389.529 134.148,387.318 137.638,393.252 131.472,393.019 129.261,397.906 129.494,413.031 139.267,410.006 143.688,416.289 148.226,421.64 156.254,432.228 146.946,438.045 136.824,433.624 137.522,438.162 134.497,453.869 141.594,450.145 145.899,449.913 146.597,458.522 155.207,458.173 182.432,460.151 172.309,468.761 161.606,485.166 162.653,495.637 171.844,489.238 173.822,497.731 168.121,507.272 182.432,516.114 202.094,512.856 197.091,498.662 192.903,488.54 199.418,472.949 202.792,451.658 202.56,447.237 191.623,426.76 206.166,419.779 210.239,418.848 220.128,404.654 230.599,393.136 236.766,391.041 250.378,413.845 253.519,424.2 253.403,431.297 260.617,426.876 266.201,426.178 265.038,434.555 278.999,429.319 286.795,412.798 285.864,395.928 275.742,402.676 272.251,397.44 261.198,382.897 256.312,369.983 279.348,359.395 289.936,359.628 280.977,346.131 297.964,330.192 307.388,323.328 316.928,326.585 311.227,341.827 323.909,357.882 307.737,371.96 297.266,376.033 304.596,394.648 321.582,386.038 326.818,401.28 316.23,406.981 307.155,420.477 295.055,428.738 289.122,443.397 285.631,451.193 307.272,456.661 311.693,453.985 326.003,443.746 328.912,442.467"/>
</svg>