<?xml version="1.0" standalone="no"?>
<!DOCTYPE svg PUBLIC "-//W3C//DTD SVG 1.1//EN" "http://www.w3.org/Graphics/SVG/1.1/DTD/svg11.dtd">
<svg version="1.1" viewBox="0 0 1000 494.157">
<rect width="100%" height="100%" fill="white"/>
<polyline fill="none" stroke="black" stroke-width="0.5" points="80.0305,4.82724 35.5691,36.8394 15.752,19.8171 10.6707,42.6829 20.3252,145.833 17.0224,163.11 25.6606,228.404 33.7907,222.307 50.5589,217.988 120.935,202.49 110.518,268.039 20.5793,328.76 1.27033,389.736 0,436.738 11.1789,418.953 69.1057,383.384 113.059,418.445 129.065,458.841 147.866,412.093 145.071,374.492 221.037,382.114 252.541,401.677 256.606,405.996 313.516,370.427 314.787,357.724 337.144,369.665 350.356,419.715 311.738,425.305 324.441,457.571 345.02,458.841 351.118,494.157 423.018,453.76 461.382,452.744 451.474,405.234 545.732,428.608 566.819,411.077 591.972,413.364 592.988,458.841 643.039,432.927 686.992,459.35 688.008,488.059 691.311,488.313 778.709,462.907 768.801,442.581 769.055,425.813 783.283,389.99 817.327,330.539 849.593,345.528 887.195,418.191 954.522,453.76 929.116,378.303 935.213,354.675 940.803,308.943 908.791,260.163 909.299,203.506 963.923,224.085 973.577,212.907 999.238,244.665 991.362,211.636 1000,165.142 943.598,80.5386 959.604,0 921.748,61.2297 888.72,78.7602 807.673,93.4959 762.703,61.9919 705.539,19.3089 685.722,9.40041 641.768,27.9472 668.699,65.0407 678.1,127.287 703.252,173.272 791.667,151.423 849.593,164.888 816.311,254.319 766.514,236.535 754.827,239.075 721.545,261.179 654.217,232.47 650.915,341.463 550.813,250.254 548.78,238.313 517.785,168.445 472.053,243.14 389.736,249.746 374.238,294.461 347.815,320.63 350.864,234.248 344.512,222.815 351.118,146.087 347.307,70.6301 358.994,53.8618 364.837,28.2012 281.25,18.2927 258.892,79.5224 237.043,114.329 277.439,135.671 244.919,195.122 213.923,218.75 136.941,30.2337 80.0305,4.82724"/>
</svg>