<?xml version="1.0" standalone="no"?>
<!DOCTYPE svg PUBLIC "-//W3C//DTD SVG 1.1//EN" "http://www.w3.org/Graphics/SVG/1.1/DTD/svg11.dtd">
<svg version="1.1" viewBox="0 0 1000 1398.79">
<rect width="100%" height="100%" fill="white"/>
<polyline fill="none" stroke="black" stroke-width="0.5" points="270.612,766.515 270.612,776.631 265.554,801.922 265.554,822.155 263.025,832.271 263.025,842.387 263.025,857.562 263.025,872.736 273.141,892.969 290.845,892.969 290.845,903.085 300.961,908.144 311.077,898.027 311.077,908.144 308.548,923.318 318.665,928.376 308.548,938.493 298.432,928.376 280.728,943.551 265.554,943.551 270.612,953.667 270.612,968.842 270.612,978.958 270.612,989.074 270.612,1004.25 257.967,1004.25 257.967,1019.42 260.799,1032.47 260.496,1044.71 270.612,1039.66 270.612,1049.77 285.787,1049.77 285.787,1039.66 290.845,1029.54 308.548,1029.54 313.606,1039.66 313.606,1049.77 336.368,1057.36 346.485,1057.36 356.601,1057.36 351.543,1115.53 351.543,1125.64 336.368,1125.64 321.194,1115.53 300.961,1118.06 280.83,1103.69 263.025,1110.47 226.1,1073.55 226.1,1058.37 226.1,1043.2 226.1,1028.02 226.1,1012.85 226.1,997.673 209.914,989.074 226.1,982.499 226.1,967.324 214.972,961.254 207.385,966.313 207.385,956.196 214.972,948.609 220.03,938.493 209.914,938.493 187.152,928.376 177.036,938.493 166.92,928.376 177.036,923.318 174.507,908.144 174.507,898.027 184.623,908.144 192.21,898.027 204.856,898.027 220.03,900.556 222.559,880.324 222.559,867.678 222.559,857.562 222.559,847.446 222.559,837.329 209.914,806.98 194.74,801.922 218.513,774.709 218.614,764.593 218.614,754.476 218.513,744.259 218.513,734.244 218.614,724.127 189.378,674.962 199.798,675.468 220.03,675.468 225.089,640.061 225.089,629.944 225.089,619.828 225.089,609.712 225.089,599.595 225.089,589.479 225.089,579.363 214.972,574.305 225.089,562.772 225.089,562.671 225.089,547.496 224.987,547.496 225.089,532.322 224.987,532.221 225.089,517.147 224.987,517.046 225.089,498.432 225.089,478.199 225.089,457.967 209.914,457.967 209.914,442.792 225.089,442.792 225.089,427.618 263.025,427.618 263.025,447.85 285.787,447.85 300.961,435.205 306.019,457.967 295.903,468.083 306.019,478.199 285.787,488.316 265.554,488.316 270.612,498.432 263.025,506.019 290.845,506.019 306.019,506.019 316.136,523.723 311.077,533.839 321.194,551.543 331.31,549.014 326.252,533.839 336.368,533.839 351.543,533.839 351.543,549.014 359.13,566.717 374.305,566.717 361.659,579.363 361.659,594.537 361.659,604.654 351.543,599.595 341.426,604.654 331.31,599.595 331.31,589.479 341.426,589.479 351.543,584.421 346.485,574.305 326.252,574.305 311.077,589.479 300.961,574.305 300.961,564.188 295.903,549.014 295.903,533.839 285.787,538.897 285.787,554.072 285.787,564.188 285.787,574.305 270.612,579.363 260.496,584.421 260.496,599.595 270.612,599.595 275.67,609.712 260.496,614.77 260.496,629.944 268.083,650.177 257.967,660.293 268.083,670.41 285.787,640.061 275.67,635.003 275.67,624.886 285.787,624.886 295.903,614.77 306.019,614.77 316.136,645.119 306.019,650.177 316.136,655.235 311.077,670.41 326.252,670.41 336.368,670.41 346.485,670.41 356.601,670.41 379.363,655.235 386.95,665.352 397.066,675.468 417.299,675.468 420.132,663.126 402.124,665.352 394.537,650.177 379.363,640.061 379.363,629.944 379.363,614.77 389.479,614.77 381.892,604.654 376.834,589.479 392.008,589.479 404.654,579.363 404.654,569.246 422.357,574.305 442.59,564.188 457.764,564.188 462.822,554.072 447.648,554.072 442.59,538.897 432.473,549.014 422.357,538.897 402.124,543.955 407.183,533.839 412.241,518.665 422.357,498.432 442.59,498.432 432.473,488.316 417.299,468.083 432.473,468.083 447.648,473.141 447.648,457.967 467.881,457.967 483.055,457.967 483.055,442.792 483.055,427.618 467.881,442.792 432.473,432.676 442.59,409.914 432.473,392.21 442.59,389.681 457.764,356.803 457.764,341.629 457.764,331.512 457.764,316.338 484.067,350.228 484.067,335.053 484.067,319.879 484.067,304.704 484.067,289.53 484.067,274.355 484.067,259.181 484.067,244.006 472.939,237.936 472.939,225.291 477.997,215.175 467.881,215.175 465.352,232.878 465.352,242.994 467.881,265.756 452.706,265.756 445.119,255.64 442.59,265.756 447.648,280.931 457.764,291.047 447.648,296.105 432.473,296.105 437.532,285.989 427.415,265.756 407.183,248.053 417.299,248.053 424.886,240.465 435.003,240.465 435.003,230.349 424.886,230.349 424.886,220.233 417.299,215.175 407.183,215.175 424.886,205.058 435.003,215.175 445.119,205.058 435.003,200 432.473,184.825 432.473,174.709 442.59,184.825 450.177,174.709 462.822,174.709 477.997,177.238 480.526,157.006 480.526,144.36 480.526,134.244 480.526,124.127 480.526,114.011 523.52,98.8366 520.991,108.953 520.991,119.069 520.991,134.244 520.991,149.418 531.108,169.651 548.811,169.651 548.811,179.767 558.928,184.825 569.044,184.825 569.044,174.709 606.98,179.767 606.98,159.535 606.98,119.069 652.504,119.069 652.504,159.535 652.504,179.767 655.033,205.058 634.8,205.058 624.684,205.058 604.451,205.058 594.335,215.175 584.219,215.175 576.631,220.233 576.631,230.349 576.631,240.465 584.219,245.524 594.335,245.524 574.102,265.756 558.928,265.756 543.753,260.698 556.399,255.64 566.515,237.936 566.515,227.82 566.515,215.175 576.631,205.058 566.515,200 556.399,205.058 538.695,220.233 523.52,220.233 528.579,230.349 528.579,245.524 528.579,255.64 528.579,265.756 528.579,280.931 515.933,280.931 515.933,296.105 518.766,309.155 518.462,321.396 528.579,316.338 528.579,326.454 543.753,326.454 543.753,316.338 548.811,306.222 551.34,291.047 563.986,285.989 569.044,296.105 566.515,306.222 571.573,316.338 571.573,326.454 581.689,306.222 609.509,306.222 629.742,306.222 629.742,291.047 619.626,296.105 614.568,285.989 629.742,275.873 644.917,285.989 639.858,296.105 649.975,306.222 665.149,306.222 657.562,313.809 657.562,323.925 660.091,334.041 644.917,334.041 629.742,334.041 614.568,334.041 604.451,334.041 594.335,334.041 609.509,392.21 609.509,402.327 594.335,402.327 579.16,392.21 558.928,394.74 538.796,380.374 520.991,387.152 520.991,427.618 520.991,447.85 543.753,447.85 558.928,435.205 563.986,457.967 553.869,468.083 563.986,478.199 563.986,506.019 548.811,506.019 543.753,488.316 528.579,498.432 520.991,506.019 523.52,488.316 483.055,478.199 483.055,498.432 482.954,517.046 483.055,517.147 482.954,532.221 483.055,532.322 482.954,547.496 483.055,547.496 483.055,562.671 483.055,562.772 472.939,574.305 483.055,579.363 483.055,589.479 483.055,599.595 483.055,609.712 483.055,619.828 483.055,629.944 483.055,640.061 477.997,675.468 457.764,675.468 447.344,674.962 476.581,724.127 476.48,734.244 476.48,744.259 476.581,754.476 476.581,764.593 476.48,774.709 528.579,776.631 528.579,766.515 528.579,746.282 528.579,736.166 528.579,726.05 526.05,670.41 515.933,660.293 526.05,650.177 518.462,629.944 518.462,614.77 533.637,609.712 528.579,599.595 518.462,599.595 518.462,584.421 528.579,579.363 543.753,574.305 558.928,574.305 558.928,564.188 543.753,564.188 543.753,554.072 553.869,549.014 543.753,538.897 553.869,533.839 569.044,533.839 574.102,523.723 584.219,533.839 579.16,551.543 589.277,549.014 594.335,533.839 609.509,533.839 609.509,549.014 617.097,566.717 632.271,566.717 619.626,579.363 619.626,594.537 619.626,604.654 609.509,599.595 599.393,604.654 589.277,599.595 589.277,589.479 599.393,589.479 609.509,584.421 604.451,574.305 584.219,574.305 569.044,589.479 563.986,614.77 553.869,614.77 543.753,624.886 533.637,624.886 533.637,635.003 543.753,640.061 563.986,650.177 574.102,645.119 574.102,655.235 569.044,670.41 584.219,670.41 594.335,670.41 604.451,670.41 614.568,670.41 637.329,655.235 644.917,665.352 655.033,675.468 675.266,675.468 678.098,663.126 660.091,665.352 652.504,650.177 637.329,640.061 637.329,629.944 637.329,614.77 647.446,614.77 639.858,604.654 634.8,589.479 649.975,589.479 662.62,579.363 662.62,569.246 680.324,574.305 700.556,564.188 715.731,564.188 720.789,554.072 705.615,554.072 700.556,538.897 690.44,549.014 680.324,538.897 660.091,543.955 665.149,533.839 670.207,518.665 680.324,498.432 700.556,498.432 690.44,488.316 675.266,468.083 690.44,468.083 705.615,473.141 705.615,457.967 690.44,432.676 700.556,409.914 690.44,392.21 700.556,389.681 715.731,356.803 715.731,341.629 715.731,331.512 715.731,316.338 742.033,304.704 742.033,319.879 742.033,335.053 742.033,350.228 778.958,387.152 796.763,380.374 816.894,394.74 837.127,392.21 852.301,402.327 867.476,402.327 867.476,392.21 872.534,334.041 862.418,334.041 852.301,334.041 829.54,326.454 829.54,316.338 824.482,306.222 827.011,296.105 839.656,306.222 867.476,306.222 877.592,296.105 872.534,285.989 887.709,275.873 902.883,285.989 897.825,296.105 887.709,291.047 887.709,306.222 887.709,334.041 902.883,334.041 918.058,334.041 915.529,323.925 915.529,313.809 907.941,306.222 923.116,306.222 948.407,296.105 953.465,285.989 963.581,280.931 973.698,291.047 963.581,296.105 973.698,316.338 973.698,331.512 973.698,341.629 973.698,356.803 1000,350.228 1000,335.053 1000,319.879 1000,304.704 1000,289.53 1000,274.355 1000,259.181 1000,244.006 988.872,237.936 988.872,225.291 993.93,215.175 983.814,215.175 981.285,232.878 981.285,242.994 983.814,265.756 968.639,265.756 961.052,255.64 958.523,265.756 943.349,265.756 923.116,248.053 933.232,248.053 940.819,240.465 950.936,240.465 950.936,230.349 940.819,230.349 940.819,220.233 933.232,215.175 923.116,215.175 940.819,205.058 950.936,215.175 961.052,205.058 950.936,200 948.407,184.825 948.407,174.709 958.523,184.825 966.11,174.709 978.756,174.709 993.93,177.238 996.459,157.006 996.459,144.36 996.459,134.244 996.459,124.127 996.459,114.011 983.814,83.6621 992.413,51.391 992.514,41.2747 992.514,31.1583 992.413,20.9408 992.413,10.9256 992.514,0.809307 968.639,78.6039 940.819,78.6039 912.999,78.6039 902.883,53.3131 902.883,43.1968 902.883,22.9641 902.883,12.8477 902.883,2.73141 876.48,0 876.48,10.2175 876.48,20.6373 876.581,30.6525 876.581,40.87 876.378,50.8852 862.418,78.6039 834.8,78.6039 806.778,78.6039 786.545,53.3131 786.545,43.1968 786.545,22.9641 786.545,12.8477 786.545,2.73141 734.547,0.809307 734.446,10.9256 734.446,20.9408 734.547,31.1583 734.547,41.2747 734.446,51.391 781.487,78.6039 781.487,98.8366 778.958,108.953 778.958,119.069 778.958,134.244 778.958,149.418 789.074,169.651 806.778,169.651 806.778,179.767 816.894,184.825 827.011,184.825 827.011,174.709 864.947,179.767 864.947,159.535 864.947,119.069 910.47,119.069 910.47,159.535 910.47,179.767 912.999,205.058 892.767,205.058 882.65,205.058 862.418,205.058 852.301,215.175 842.185,215.175 834.598,220.233 834.598,230.349 852.301,245.524 842.185,245.524 834.598,240.465 824.482,237.936 824.482,227.82 824.482,215.175 834.598,205.058 824.482,200 814.365,205.058 796.662,220.233 781.487,220.233 786.545,230.349 786.545,245.524 786.545,255.64 786.545,265.756 801.72,260.698 814.365,255.64 816.894,265.756 832.069,265.756 821.952,285.989 809.307,291.047 806.778,306.222 801.72,316.338 801.72,326.454 786.545,326.454 786.545,316.338 776.429,321.396 776.732,309.155 773.9,296.105 786.545,280.931 773.9,280.931 742.033,289.53 742.033,274.355 742.033,259.181 742.033,244.006 730.905,237.936 730.905,225.291 735.964,215.175 725.847,215.175 723.318,232.878 723.318,242.994 725.847,265.756 710.673,265.756 703.085,255.64 700.556,265.756 705.615,280.931 715.731,291.047 705.615,296.105 690.44,296.105 695.498,285.989 685.382,265.756 665.149,248.053 675.266,248.053 682.853,240.465 692.969,240.465 692.969,230.349 682.853,230.349 682.853,220.233 675.266,215.175 665.149,215.175 682.853,205.058 692.969,215.175 703.085,205.058 692.969,200 690.44,184.825 690.44,174.709 700.556,184.825 708.144,174.709 720.789,174.709 735.964,177.238 738.493,157.006 738.493,144.36 738.493,134.244 738.493,124.127 738.493,114.011 725.847,83.6621 710.673,78.6039 682.853,78.6039 655.033,78.6039 644.917,53.3131 644.917,43.1968 644.917,22.9641 644.917,12.8477 644.917,2.73141 618.513,0 618.513,10.2175 618.513,20.6373 618.614,30.6525 618.614,40.87 618.412,50.8852 604.451,78.6039 576.834,78.6039 548.811,78.6039 523.52,78.6039 528.579,53.3131 528.579,43.1968 528.579,22.9641 528.579,12.8477 528.579,2.73141 476.581,0.809307 476.48,10.9256 476.48,20.9408 476.581,31.1583 476.581,41.2747 476.48,51.391 467.881,83.6621 452.706,78.6039 424.886,78.6039 397.066,78.6039 386.95,53.3131 386.95,43.1968 386.95,22.9641 386.95,12.8477 386.95,2.73141 360.546,0 360.546,10.2175 360.546,20.6373 360.647,30.6525 360.647,40.87 360.445,50.8852 346.485,78.6039 318.867,78.6039 290.845,78.6039 265.554,78.6039 270.612,53.3131 270.612,43.1968 270.612,22.9641 270.612,12.8477 270.612,2.73141 218.614,0.809307 218.513,10.9256 218.513,20.9408 218.614,31.1583 218.614,41.2747 218.513,51.391 209.914,83.6621 194.74,78.6039 166.92,78.6039 139.1,78.6039 128.983,53.3131 128.983,43.1968 128.983,22.9641 128.983,12.8477 128.983,2.73141 102.58,0 102.58,10.2175 102.58,20.6373 102.681,30.6525 102.681,40.87 102.479,50.8852 88.518,78.6039 60.9004,78.6039 32.8781,78.6039 12.6454,2.73141 12.6454,12.8477 12.6454,22.9641 12.6454,43.1968 12.6454,53.3131 7.58725,78.6039 7.58725,98.8366 5.05817,108.953 5.05817,119.069 5.05817,134.244 5.05817,149.418 15.1745,169.651 32.8781,169.651 32.8781,179.767 42.9944,184.825 53.1108,174.709 53.1108,184.825 50.5817,200 60.698,205.058 50.5817,215.175 40.4654,205.058 22.7618,220.233 7.58725,220.233 12.6454,230.349 12.6454,245.524 12.6454,255.64 12.6454,265.756 12.6454,280.931 0,280.931 0,296.105 2.83257,309.155 2.52908,321.396 12.6454,316.338 12.6454,326.454 27.8199,326.454 27.8199,316.338 32.8781,306.222 50.5817,306.222 55.6399,316.338 55.6399,326.454 78.4016,334.041 88.518,334.041 98.6343,334.041 113.809,334.041 128.983,334.041 144.158,334.041 141.629,323.925 141.629,313.809 149.216,306.222 134.041,306.222 113.809,306.222 113.809,291.047 123.925,296.105 128.983,285.989 113.809,275.873 98.6343,285.989 103.692,296.105 93.5761,306.222 65.7562,306.222 53.1108,296.105 48.0526,285.989 35.4072,291.047 27.8199,260.698 40.4654,255.64 42.9944,265.756 58.1689,265.756 78.4016,245.524 68.2853,245.524 60.698,240.465 50.5817,237.936 50.5817,227.82 60.698,230.349 60.698,220.233 68.2853,215.175 78.4016,215.175 88.518,205.058 91.047,179.767 91.047,159.535 91.047,119.069 136.571,119.069 136.571,159.535 136.571,179.767 108.751,205.058 118.867,205.058 139.1,205.058 149.216,215.175 159.332,215.175 166.92,205.058 177.036,200 174.507,184.825 174.507,174.709 184.623,184.825 192.21,174.709 204.856,174.709 220.03,177.238 222.559,157.006 222.559,144.36 222.559,134.244 222.559,124.127 222.559,114.011 265.554,98.8366 263.025,108.953 263.025,119.069 263.025,134.244 263.025,149.418 273.141,169.651 290.845,169.651 290.845,179.767 300.961,184.825 311.077,184.825 311.077,174.709 349.014,179.767 349.014,159.535 349.014,119.069 394.537,119.069 394.537,159.535 394.537,179.767 397.066,205.058 376.834,205.058 366.717,205.058 346.485,205.058 336.368,215.175 326.252,215.175 318.665,220.233 318.665,230.349 318.665,240.465 326.252,245.524 336.368,245.524 316.136,265.756 300.961,265.756 285.787,260.698 298.432,255.64 308.548,237.936 308.548,227.82 308.548,215.175 318.665,205.058 308.548,200 298.432,205.058 280.728,220.233 265.554,220.233 270.612,230.349 270.612,245.524 270.612,255.64 270.612,265.756 270.612,280.931 257.967,280.931 257.967,296.105 260.799,309.155 260.496,321.396 270.612,316.338 270.612,326.454 285.787,326.454 285.787,316.338 290.845,306.222 293.374,291.047 306.019,285.989 311.077,296.105 308.548,306.222 313.606,316.338 313.606,326.454 323.723,306.222 351.543,306.222 371.775,306.222 371.775,291.047 361.659,296.105 356.601,285.989 371.775,275.873 386.95,285.989 381.892,296.105 392.008,306.222 407.183,306.222 399.595,313.809 399.595,323.925 402.124,334.041 386.95,334.041 371.775,334.041 356.601,334.041 346.485,334.041 336.368,334.041 351.543,392.21 351.543,402.327 336.368,402.327 321.194,392.21 300.961,394.74 280.83,380.374 263.025,387.152 226.1,350.228 226.1,335.053 226.1,319.879 226.1,304.704 226.1,289.53 226.1,274.355 209.914,265.756 226.1,259.181 226.1,244.006 214.972,237.936 207.385,242.994 207.385,232.878 214.972,225.291 220.03,215.175 209.914,215.175 187.152,205.058 177.036,215.175 166.92,220.233 166.92,230.349 177.036,230.349 177.036,240.465 166.92,240.465 159.332,248.053 149.216,248.053 169.449,265.756 184.623,265.756 187.152,255.64 194.74,265.756 189.681,280.931 179.565,285.989 174.507,296.105 189.681,296.105 199.798,291.047 199.798,316.338 199.798,331.512 199.798,341.629 199.798,356.803 184.623,389.681 174.507,392.21 184.623,409.914 174.507,432.676 189.681,457.967 189.681,473.141 174.507,468.083 159.332,468.083 174.507,488.316 184.623,498.432 164.39,498.432 154.274,518.665 149.216,533.839 144.158,543.955 164.39,538.897 174.507,549.014 184.623,538.897 189.681,554.072 204.856,554.072 199.798,564.188 184.623,564.188 164.39,574.305 146.687,569.246 146.687,579.363 134.041,589.479 118.867,589.479 123.925,604.654 131.512,614.77 121.396,614.77 121.396,629.944 121.396,640.061 136.571,650.177 144.158,665.352 162.165,663.126 159.332,675.468 139.1,675.468 128.983,665.352 121.396,655.235 98.6343,670.41 88.518,670.41 78.4016,670.41 68.2853,670.41 53.1108,670.41 58.1689,655.235 58.1689,645.119 48.0526,650.177 27.8199,640.061 17.7036,635.003 17.7036,624.886 27.8199,624.886 37.9363,614.77 48.0526,614.77 53.1108,589.479 68.2853,574.305 88.518,574.305 93.5761,584.421 83.4598,589.479 73.3434,589.479 73.3434,599.595 83.4598,604.654 93.5761,599.595 103.692,604.654 103.692,594.537 103.692,579.363 116.338,566.717 101.163,566.717 93.5761,549.014 93.5761,533.839 78.4016,533.839 68.2853,533.839 73.3434,549.014 63.2271,551.543 53.1108,533.839 58.1689,523.723 48.0526,506.019 32.8781,506.019 27.8199,488.316 48.0526,478.199 37.9363,468.083 48.0526,457.967 27.8199,447.85 42.9944,435.205 78.4016,402.327 93.5761,402.327 93.5761,392.21 63.2271,392.21 42.9944,394.74 22.8629,380.374 5.05817,387.152 5.05817,427.618 5.05817,447.85 7.58725,488.316 12.6454,498.432 5.05817,506.019 27.8199,538.897 37.9363,533.839 37.9363,549.014 27.8199,554.072 27.8199,564.188 42.9944,564.188 42.9944,574.305 27.8199,574.305 12.6454,579.363 2.52908,584.421 2.52908,599.595 12.6454,599.595 17.7036,609.712 2.52908,614.77 2.52908,629.944 10.1163,650.177 0,660.293 10.1163,670.41 12.6454,726.05 12.6454,736.166 12.6454,746.282 12.6454,766.515 12.6454,776.631 32.8781,801.922 7.58725,801.922 7.58725,822.155 5.05817,832.271 5.05817,842.387 5.05817,857.562 5.05817,872.736 15.1745,892.969 32.8781,892.969 32.8781,903.085 42.9944,908.144 53.1108,898.027 53.1108,908.144 50.5817,923.318 60.698,928.376 50.5817,938.493 40.4654,928.376 22.7618,943.551 7.58725,943.551 12.6454,953.667 12.6454,968.842 12.6454,978.958 12.6454,989.074 12.6454,1004.25 0,1004.25 0,1019.42 2.83257,1032.47 2.52908,1044.71 12.6454,1039.66 12.6454,1049.77 27.8199,1049.77 27.8199,1039.66 32.8781,1029.54 50.5817,1029.54 55.6399,1039.66 55.6399,1049.77 78.4016,1057.36 88.518,1057.36 98.6343,1057.36 113.809,1057.36 128.983,1057.36 144.158,1057.36 141.629,1047.24 141.629,1037.13 149.216,1029.54 134.041,1029.54 123.925,1019.42 128.983,1009.31 113.809,999.191 98.6343,1009.31 103.692,1019.42 113.809,1014.37 113.809,1029.54 93.5761,1029.54 65.7562,1029.54 53.1108,1019.42 48.0526,1009.31 35.4072,1014.37 27.8199,984.016 40.4654,978.958 42.9944,989.074 58.1689,989.074 78.4016,968.842 68.2853,968.842 60.698,963.784 50.5817,961.254 50.5817,951.138 60.698,953.667 60.698,943.551 68.2853,938.493 78.4016,938.493 88.518,928.376 108.751,928.376 118.867,928.376 91.047,903.085 91.047,882.853 91.047,842.387 60.9004,801.922 88.518,801.922 102.479,774.203 102.681,764.188 102.681,753.971 102.58,743.955 102.58,733.536 102.58,723.318 128.983,726.05 128.983,736.166 128.983,746.282 128.983,766.515 128.983,776.631 139.1,801.922 166.92,801.922 136.571,842.387 136.571,882.853 136.571,903.085 139.1,928.376 149.216,938.493 159.332,938.493 166.92,943.551 166.92,953.667 177.036,953.667 177.036,963.784 166.92,963.784 159.332,971.371 149.216,971.371 169.449,989.074 184.623,989.074 187.152,978.958 194.74,989.074 189.681,1004.25 179.565,1009.31 174.507,1019.42 189.681,1019.42 199.798,1014.37 199.798,1039.66 199.798,1054.83 199.798,1064.95 199.798,1080.12 184.623,1113 174.507,1115.53 184.623,1133.23 174.507,1155.99 189.681,1181.28 189.681,1196.46 174.507,1191.4 159.332,1191.4 174.507,1211.63 184.623,1221.75 164.39,1221.75 154.274,1241.98 149.216,1257.16 144.158,1267.27 164.39,1262.22 174.507,1272.33 184.623,1262.22 189.681,1277.39 204.856,1277.39 199.798,1287.51 184.623,1287.51 164.39,1297.62 146.687,1292.56 146.687,1302.68 134.041,1312.8 118.867,1312.8 123.925,1327.97 131.512,1338.09 121.396,1338.09 103.692,1327.97 103.692,1317.86 93.5761,1322.91 83.4598,1327.97 73.3434,1322.91 73.3434,1312.8 83.4598,1312.8 93.5761,1307.74 103.692,1302.68 116.338,1290.04 101.163,1290.04 88.518,1297.62 68.2853,1297.62 53.1108,1312.8 42.9944,1297.62 42.9944,1287.51 63.2271,1274.86 73.3434,1272.33 93.5761,1272.33 93.5761,1257.16 78.4016,1257.16 68.2853,1257.16 53.1108,1257.16 58.1689,1247.04 48.0526,1229.34 32.8781,1229.34 27.8199,1211.63 48.0526,1201.52 37.9363,1191.4 48.0526,1181.28 27.8199,1171.17 42.9944,1158.52 78.4016,1125.64 93.5761,1125.64 93.5761,1115.53 63.2271,1115.53 42.9944,1118.06 22.8629,1103.69 5.05817,1110.47 5.05817,1150.94 5.05817,1171.17 7.58725,1211.63 12.6454,1221.75 5.05817,1229.34 27.8199,1262.22 37.9363,1257.16 37.9363,1272.33 27.8199,1277.39 27.8199,1287.51 27.8199,1297.62 12.6454,1302.68 2.52908,1307.74 2.52908,1322.91 12.6454,1322.91 17.7036,1333.03 2.52908,1338.09 2.52908,1353.26 10.1163,1373.5 0,1383.61 10.1163,1393.73 27.8199,1363.38 17.7036,1358.32 17.7036,1348.2 27.8199,1348.2 37.9363,1338.09 48.0526,1338.09 58.1689,1368.44 48.0526,1373.5 58.1689,1378.55 53.1108,1393.73 68.2853,1393.73 78.4016,1393.73 88.518,1393.73 98.6343,1393.73 121.396,1378.55 121.396,1363.38 121.396,1353.26 136.571,1373.5 128.983,1388.67 139.1,1398.79 144.158,1388.67 159.332,1398.79 162.165,1386.44 189.378,1398.28 199.798,1398.79 220.03,1398.79 225.089,1363.38 225.089,1353.26 225.089,1343.15 225.089,1333.03 225.089,1322.91 225.089,1312.8 225.089,1302.68 214.972,1297.62 225.089,1286.09 225.089,1285.99 225.089,1270.81 224.987,1270.81 225.089,1255.64 224.987,1255.54 225.089,1240.47 224.987,1240.36 225.089,1221.75 225.089,1201.52 225.089,1181.28 209.914,1181.28 209.914,1166.11 225.089,1166.11 225.089,1150.94 263.025,1150.94 263.025,1171.17 285.787,1171.17 300.961,1158.52 306.019,1181.28 295.903,1191.4 306.019,1201.52 285.787,1211.63 265.554,1211.63 270.612,1221.75 263.025,1229.34 290.845,1229.34 306.019,1229.34 316.136,1247.04 311.077,1257.16 321.194,1274.86 331.31,1272.33 326.252,1257.16 336.368,1257.16 351.543,1257.16 351.543,1272.33 359.13,1290.04 374.305,1290.04 361.659,1302.68 361.659,1317.86 361.659,1327.97 351.543,1322.91 341.426,1327.97 331.31,1322.91 331.31,1312.8 341.426,1312.8 351.543,1307.74 346.485,1297.62 326.252,1297.62 311.077,1312.8 300.961,1297.62 300.961,1287.51 295.903,1272.33 295.903,1257.16 285.787,1262.22 285.787,1277.39 285.787,1287.51 285.787,1297.62 270.612,1302.68 260.496,1307.74 260.496,1322.91 270.612,1322.91 275.67,1333.03 260.496,1338.09 260.496,1353.26 268.083,1373.5 257.967,1383.61 268.083,1393.73 285.787,1363.38 275.67,1358.32 275.67,1348.2 285.787,1348.2 295.903,1338.09 306.019,1338.09 316.136,1368.44 306.019,1373.5 316.136,1378.55 311.077,1393.73 326.252,1393.73 336.368,1393.73 346.485,1393.73 356.601,1393.73 379.363,1378.55 386.95,1388.67 397.066,1398.79 417.299,1398.79 420.132,1386.44 402.124,1388.67 394.537,1373.5 379.363,1363.38 379.363,1353.26 379.363,1338.09 389.479,1338.09 381.892,1327.97 376.834,1312.8 392.008,1312.8 404.654,1302.68 404.654,1292.56 422.357,1297.62 442.59,1287.51 457.764,1287.51 462.822,1277.39 447.648,1277.39 442.59,1262.22 432.473,1272.33 422.357,1262.22 402.124,1267.27 407.183,1257.16 412.241,1241.98 422.357,1221.75 442.59,1221.75 432.473,1211.63 417.299,1191.4 432.473,1191.4 447.648,1196.46 447.648,1181.28 432.473,1155.99 442.59,1133.23 432.473,1115.53 442.59,1113 483.055,1150.94 483.055,1166.11 467.881,1166.11 467.881,1181.28 483.055,1181.28 483.055,1201.52 483.055,1221.75 482.954,1240.36 483.055,1240.47 482.954,1255.54 483.055,1255.64 483.055,1270.81 482.954,1270.81 483.055,1285.99 483.055,1286.09 472.939,1297.62 483.055,1302.68 483.055,1312.8 483.055,1322.91 483.055,1333.03 483.055,1343.15 483.055,1353.26 483.055,1363.38 447.344,1398.28 457.764,1398.79 477.997,1398.79 515.933,1383.61 526.05,1393.73 526.05,1373.5 518.462,1353.26 518.462,1338.09 533.637,1333.03 528.579,1322.91 518.462,1322.91 518.462,1307.74 528.579,1302.68 543.753,1297.62 543.753,1287.51 543.753,1277.39 543.753,1262.22 553.869,1257.16 553.869,1272.33 558.928,1287.51 558.928,1297.62 569.044,1312.8 563.986,1338.09 553.869,1338.09 543.753,1348.2 533.637,1348.2 533.637,1358.32 543.753,1363.38 563.986,1373.5 574.102,1368.44 574.102,1378.55 569.044,1393.73 584.219,1393.73 594.335,1393.73 604.451,1393.73 614.568,1393.73 637.329,1378.55 644.917,1388.67 655.033,1398.79 675.266,1398.79 678.098,1386.44 660.091,1388.67 652.504,1373.5 637.329,1363.38 637.329,1353.26 637.329,1338.09 647.446,1338.09 639.858,1327.97 634.8,1312.8 649.975,1312.8 662.62,1302.68 662.62,1292.56 680.324,1297.62 700.556,1287.51 715.731,1287.51 720.789,1277.39 705.615,1277.39 700.556,1262.22 690.44,1272.33 680.324,1262.22 670.207,1241.98 665.149,1257.16 660.091,1267.27 632.271,1290.04 617.097,1290.04 619.626,1302.68 619.626,1317.86 619.626,1327.97 609.509,1322.91 599.393,1327.97 589.277,1322.91 589.277,1312.8 599.393,1312.8 609.509,1307.74 604.451,1297.62 584.219,1297.62 579.16,1274.86 589.277,1272.33 609.509,1272.33 609.509,1257.16 594.335,1257.16 584.219,1257.16 569.044,1257.16 574.102,1247.04 563.986,1229.34 548.811,1229.34 520.991,1229.34 528.579,1221.75 523.52,1211.63 543.753,1211.63 563.986,1201.52 553.869,1191.4 563.986,1181.28 558.928,1158.52 543.753,1171.17 520.991,1171.17 520.991,1150.94 520.991,1110.47 538.796,1103.69 558.928,1118.06 579.16,1115.53 594.335,1125.64 609.509,1125.64 609.509,1115.53 690.44,1115.53 700.556,1113 700.556,1133.23 690.44,1155.99 675.266,1191.4 690.44,1191.4 690.44,1211.63 680.324,1221.75 700.556,1221.75 705.615,1196.46 705.615,1181.28 725.847,1181.28 725.847,1166.11 741.022,1150.94 741.022,1166.11 741.022,1181.28 741.022,1201.52 741.022,1221.75 740.921,1240.36 741.022,1240.47 740.921,1255.54 741.022,1255.64 741.022,1270.81 740.921,1270.81 741.022,1285.99 741.022,1286.09 730.905,1297.62 741.022,1302.68 741.022,1312.8 741.022,1322.91 741.022,1333.03 741.022,1343.15 741.022,1353.26 741.022,1363.38 705.311,1398.28 715.731,1398.79 735.964,1398.79 773.9,1383.61 784.016,1393.73 784.016,1373.5 791.603,1358.32 801.72,1363.38 821.952,1373.5 832.069,1368.44 832.069,1378.55 827.011,1393.73 842.185,1393.73 852.301,1393.73 862.418,1393.73 872.534,1393.73 895.296,1378.55 895.296,1363.38 895.296,1353.26 910.47,1373.5 902.883,1388.67 912.999,1398.79 918.058,1388.67 933.232,1398.79 936.065,1386.44 963.278,1398.28 973.698,1398.79 993.93,1398.79 998.988,1363.38 998.988,1353.26 998.988,1343.15 998.988,1333.03 998.988,1322.91 998.988,1312.8 998.988,1302.68 988.872,1297.62 998.988,1286.09 998.988,1285.99 998.887,1270.81 998.988,1270.81 998.988,1255.64 998.887,1255.54 998.988,1240.47 998.887,1240.36 998.988,1221.75 998.988,1201.52 998.988,1181.28 983.814,1181.28 983.814,1166.11 998.988,1166.11 998.988,1150.94 958.523,1113 948.407,1115.53 958.523,1133.23 948.407,1155.99 963.581,1181.28 963.581,1196.46 948.407,1191.4 933.232,1191.4 948.407,1211.63 958.523,1221.75 938.29,1221.75 928.174,1241.98 923.116,1257.16 918.058,1267.27 938.29,1262.22 948.407,1272.33 958.523,1262.22 963.581,1277.39 978.756,1277.39 973.698,1287.51 958.523,1287.51 938.29,1297.62 920.587,1292.56 920.587,1302.68 907.941,1312.8 892.767,1312.8 897.825,1327.97 905.412,1338.09 895.296,1338.09 877.592,1327.97 877.592,1317.86 867.476,1322.91 857.36,1327.97 847.243,1322.91 847.243,1312.8 857.36,1312.8 862.418,1297.62 867.476,1307.74 877.592,1302.68 890.238,1290.04 875.063,1290.04 867.476,1272.33 867.476,1257.16 852.301,1257.16 842.185,1257.16 847.243,1272.33 837.127,1274.86 842.185,1297.62 827.011,1312.8 821.952,1338.09 811.836,1338.09 801.72,1348.2 791.603,1348.2 776.429,1353.26 776.429,1338.09 791.603,1333.03 786.545,1322.91 776.429,1322.91 776.429,1307.74 786.545,1302.68 801.72,1297.62 816.894,1297.62 816.894,1287.51 801.72,1287.51 801.72,1277.39 811.836,1272.33 801.72,1262.22 811.836,1257.16 827.011,1257.16 832.069,1247.04 821.952,1229.34 806.778,1229.34 778.958,1229.34 786.545,1221.75 781.487,1211.63 801.72,1211.63 821.952,1201.52 811.836,1191.4 821.952,1181.28 816.894,1158.52 801.72,1171.17 778.958,1171.17 778.958,1150.94 778.958,1110.47 796.763,1103.69 816.894,1118.06 837.127,1115.53 852.301,1125.64 867.476,1125.64 867.476,1115.53 872.534,1057.36 862.418,1057.36 852.301,1057.36 829.54,1049.77 829.54,1039.66 824.482,1029.54 806.778,1029.54 801.72,1039.66 801.72,1049.77 786.545,1049.77 786.545,1039.66 776.429,1044.71 776.732,1032.47 773.9,1019.42 773.9,1004.25 786.545,1004.25 809.307,1014.37 821.952,1009.31 827.011,1019.42 839.656,1029.54 867.476,1029.54 877.592,1019.42 872.534,1009.31 887.709,999.191 902.883,1009.31 897.825,1019.42 887.709,1014.37 887.709,1029.54 887.709,1057.36 902.883,1057.36 918.058,1057.36 915.529,1047.24 915.529,1037.13 907.941,1029.54 923.116,1029.54 948.407,1019.42 953.465,1009.31 963.581,1004.25 973.698,1014.37 963.581,1019.42 973.698,1039.66 973.698,1054.83 973.698,1064.95 973.698,1080.12 1000,1073.55 1000,1058.37 1000,1043.2 1000,1028.02 1000,1012.85 1000,997.673 1000,982.499 1000,967.324 988.872,961.254 988.872,948.609 993.93,938.493 983.814,938.493 981.285,956.196 981.285,966.313 983.814,989.074 968.639,989.074 961.052,978.958 958.523,989.074 943.349,989.074 923.116,971.371 933.232,971.371 940.819,963.784 950.936,963.784 950.936,953.667 940.819,953.667 940.819,943.551 933.232,938.493 923.116,938.493 940.819,928.376 950.936,938.493 961.052,928.376 950.936,923.318 948.407,908.144 948.407,898.027 958.523,908.144 966.11,898.027 978.756,898.027 993.93,900.556 996.459,880.324 996.459,867.678 996.459,857.562 996.459,847.446 996.459,837.329 983.814,806.98 992.413,774.709 992.514,764.593 992.514,754.476 992.413,744.259 992.413,734.244 992.514,724.127 968.639,801.922 940.819,801.922 912.999,801.922 902.883,776.631 902.883,766.515 902.883,746.282 902.883,736.166 902.883,726.05 876.48,723.318 876.48,733.536 876.48,743.955 876.581,753.971 876.581,764.188 876.378,774.203 862.418,801.922 834.8,801.922 806.778,801.922 786.545,776.631 786.545,766.515 786.545,746.282 786.545,736.166 786.545,726.05 784.016,670.41 773.9,660.293 784.016,650.177 791.603,635.003 801.72,640.061 821.952,650.177 832.069,645.119 832.069,655.235 827.011,670.41 842.185,670.41 852.301,670.41 862.418,670.41 872.534,670.41 895.296,655.235 895.296,640.061 895.296,629.944 910.47,650.177 902.883,665.352 912.999,675.468 918.058,665.352 933.232,675.468 936.065,663.126 963.278,674.962 973.698,675.468 993.93,675.468 998.988,640.061 998.988,629.944 998.988,619.828 998.988,609.712 998.988,599.595 998.988,589.479 998.988,579.363 988.872,574.305 998.988,562.772 998.988,562.671 998.988,547.496 998.887,547.496 998.988,532.322 998.887,532.221 998.988,517.147 998.887,517.046 998.988,498.432 998.988,478.199 998.988,457.967 983.814,457.967 983.814,442.792 998.988,442.792 998.988,427.618 958.523,389.681 948.407,392.21 958.523,409.914 948.407,432.676 963.581,457.967 963.581,473.141 948.407,468.083 933.232,468.083 948.407,488.316 958.523,498.432 938.29,498.432 928.174,518.665 923.116,533.839 918.058,543.955 938.29,538.897 948.407,549.014 958.523,538.897 963.581,554.072 978.756,554.072 973.698,564.188 958.523,564.188 938.29,574.305 920.587,569.246 920.587,579.363 907.941,589.479 892.767,589.479 897.825,604.654 905.412,614.77 895.296,614.77 877.592,604.654 877.592,594.537 867.476,599.595 857.36,604.654 847.243,599.595 847.243,589.479 857.36,589.479 867.476,584.421 862.418,574.305 877.592,579.363 890.238,566.717 875.063,566.717 867.476,549.014 867.476,533.839 852.301,533.839 842.185,533.839 847.243,549.014 837.127,551.543 842.185,574.305 827.011,589.479 821.952,614.77 811.836,614.77 801.72,624.886 791.603,624.886 776.429,629.944 776.429,614.77 791.603,609.712 786.545,599.595 776.429,599.595 776.429,584.421 786.545,579.363 801.72,574.305 816.894,574.305 816.894,564.188 801.72,564.188 801.72,554.072 811.836,549.014 801.72,538.897 811.836,533.839 827.011,533.839 832.069,523.723 821.952,506.019 806.778,506.019 778.958,506.019 786.545,498.432 781.487,488.316 801.72,488.316 821.952,478.199 811.836,468.083 821.952,457.967 816.894,435.205 801.72,447.85 778.958,447.85 778.958,427.618 741.022,427.618 741.022,442.792 725.847,442.792 725.847,457.967 741.022,457.967 741.022,478.199 741.022,498.432 740.921,517.046 741.022,517.147 740.921,532.221 741.022,532.322 741.022,547.496 740.921,547.496 741.022,562.671 741.022,562.772 730.905,574.305 741.022,579.363 741.022,589.479 741.022,599.595 741.022,609.712 741.022,619.828 741.022,629.944 741.022,640.061 735.964,675.468 715.731,675.468 705.311,674.962 734.547,724.127 734.446,734.244 734.446,744.259 734.547,754.476 734.547,764.593 734.446,774.709 781.487,801.922 781.487,822.155 778.958,832.271 778.958,842.387 778.958,857.562 778.958,872.736 789.074,892.969 806.778,892.969 806.778,903.085 816.894,908.144 827.011,908.144 827.011,898.027 864.947,903.085 864.947,882.853 864.947,842.387 910.47,842.387 910.47,882.853 910.47,903.085 912.999,928.376 892.767,928.376 882.65,928.376 862.418,928.376 852.301,938.493 842.185,938.493 834.598,928.376 824.482,923.318 814.365,928.376 824.482,938.493 834.598,943.551 834.598,953.667 824.482,951.138 824.482,961.254 834.598,963.784 842.185,968.842 852.301,968.842 832.069,989.074 816.894,989.074 814.365,978.958 801.72,984.016 786.545,989.074 786.545,978.958 786.545,968.842 786.545,953.667 796.662,943.551 781.487,943.551 735.964,938.493 725.847,938.493 730.905,948.609 723.318,956.196 723.318,966.313 730.905,961.254 742.033,967.324 742.033,982.499 725.847,989.074 742.033,997.673 742.033,1012.85 742.033,1028.02 742.033,1043.2 742.033,1058.37 742.033,1073.55 715.731,1080.12 715.731,1064.95 715.731,1054.83 715.731,1039.66 715.731,1014.37 705.615,1019.42 690.44,1019.42 695.498,1009.31 705.615,1004.25 710.673,989.074 703.085,978.958 700.556,989.074 685.382,989.074 665.149,971.371 675.266,971.371 682.853,963.784 692.969,963.784 692.969,953.667 682.853,953.667 682.853,943.551 675.266,938.493 665.149,938.493 682.853,928.376 692.969,938.493 703.085,928.376 692.969,923.318 690.44,908.144 690.44,898.027 700.556,908.144 708.144,898.027 720.789,898.027 735.964,900.556 738.493,880.324 738.493,867.678 738.493,857.562 738.493,847.446 738.493,837.329 725.847,806.98 710.673,801.922 682.853,801.922 655.033,801.922 644.917,776.631 644.917,766.515 644.917,746.282 644.917,736.166 644.917,726.05 618.513,723.318 618.513,733.536 618.513,743.955 618.614,753.971 618.614,764.188 618.412,774.203 604.451,801.922 576.834,801.922 548.811,801.922 523.52,801.922 523.52,822.155 520.991,832.271 520.991,842.387 520.991,857.562 520.991,872.736 531.108,892.969 548.811,892.969 548.811,903.085 558.928,908.144 569.044,908.144 569.044,898.027 606.98,903.085 606.98,882.853 606.98,842.387 652.504,842.387 652.504,882.853 652.504,903.085 655.033,928.376 634.8,928.376 624.684,928.376 604.451,928.376 594.335,938.493 584.219,938.493 576.631,943.551 576.631,953.667 594.335,968.842 584.219,968.842 576.631,963.784 566.515,961.254 566.515,951.138 566.515,938.493 576.631,928.376 566.515,923.318 556.399,928.376 538.695,943.551 523.52,943.551 528.579,953.667 528.579,968.842 528.579,978.958 528.579,989.074 543.753,984.016 556.399,978.958 558.928,989.074 574.102,989.074 614.568,1009.31 619.626,1019.42 609.509,1029.54 629.742,1029.54 629.742,1014.37 629.742,999.191 644.917,1009.31 639.858,1019.42 649.975,1029.54 665.149,1029.54 657.562,1037.13 657.562,1047.24 660.091,1057.36 644.917,1057.36 629.742,1057.36 614.568,1057.36 604.451,1057.36 594.335,1057.36 571.573,1049.77 571.573,1039.66 581.689,1029.54 566.515,1029.54 569.044,1019.42 563.986,1009.31 551.34,1014.37 548.811,1029.54 543.753,1039.66 543.753,1049.77 528.579,1049.77 528.579,1039.66 518.462,1044.71 518.766,1032.47 515.933,1019.42 528.579,1004.25 515.933,1004.25 484.067,997.673 484.067,1012.85 484.067,1028.02 484.067,1043.2 484.067,1058.37 484.067,1073.55 457.764,1080.12 457.764,1064.95 457.764,1054.83 457.764,1039.66 447.648,1019.42 457.764,1014.37 447.648,1004.25 437.532,1009.31 432.473,1019.42 407.183,1029.54 392.008,1029.54 399.595,1037.13 399.595,1047.24 402.124,1057.36 386.95,1057.36 371.775,1057.36 371.775,1029.54 371.775,1014.37 381.892,1019.42 386.95,1009.31 371.775,999.191 356.601,1009.31 361.659,1019.42 351.543,1029.54 323.723,1029.54 311.077,1019.42 306.019,1009.31 293.374,1014.37 285.787,984.016 298.432,978.958 300.961,989.074 316.136,989.074 336.368,968.842 326.252,968.842 318.665,963.784 308.548,961.254 308.548,951.138 318.665,953.667 318.665,943.551 326.252,938.493 336.368,938.493 346.485,928.376 349.014,903.085 349.014,882.853 349.014,842.387 394.537,842.387 394.537,882.853 394.537,903.085 366.717,928.376 376.834,928.376 397.066,928.376 407.183,938.493 417.299,938.493 424.886,943.551 424.886,953.667 435.003,953.667 435.003,963.784 424.886,963.784 417.299,971.371 407.183,971.371 427.415,989.074 442.59,989.074 445.119,978.958 452.706,989.074 467.881,989.074 484.067,982.499 484.067,967.324 472.939,961.254 465.352,966.313 465.352,956.196 472.939,948.609 477.997,938.493 467.881,938.493 445.119,928.376 435.003,938.493 424.886,928.376 435.003,923.318 432.473,908.144 432.473,898.027 442.59,908.144 450.177,898.027 462.822,898.027 477.997,900.556 480.526,880.324 480.526,867.678 480.526,857.562 480.526,847.446 480.526,837.329 467.881,806.98 452.706,801.922 424.886,801.922 397.066,801.922 386.95,776.631 386.95,766.515 386.95,746.282 386.95,736.166 386.95,726.05 360.546,723.318 360.546,733.536 360.546,743.955 360.647,753.971 360.647,764.188 360.445,774.203 346.485,801.922 318.867,801.922 290.845,801.922 270.612,726.05 270.612,736.166 270.612,746.282 270.612,766.515"/>
</svg>